<svg xmlns="http://www.w3.org/2000/svg" version="1.1" xmlns:xlink="http://www.w3.org/1999/xlink" xmlns:svgjs="http://svgjs.dev/svgjs" width="1500" height="280" viewBox="0 0 1500 280"><g transform="matrix(1,0,0,1,-0.9090909090909918,-0.7225236299606763)"><svg viewBox="0 0 396 74" data-background-color="#111111" preserveAspectRatio="xMidYMid meet" height="280" width="1500" xmlns="http://www.w3.org/2000/svg" xmlns:xlink="http://www.w3.org/1999/xlink"><g id="tight-bounds" transform="matrix(1,0,0,1,0.2400000000000091,0.19095267363246649)"><svg viewBox="0 0 395.52 73.6180946527351" height="73.6180946527351" width="395.52"><g><svg viewBox="0 0 395.52 73.6180946527351" height="73.6180946527351" width="395.52"><g><svg viewBox="0 0 395.52 73.6180946527351" height="73.6180946527351" width="395.52"><g id="textblocktransform"><svg viewBox="0 0 395.52 73.6180946527351" height="73.6180946527351" width="395.52" id="textblock"><g><svg viewBox="0 0 395.52 73.6180946527351" height="73.6180946527351" width="395.52"><g transform="matrix(1,0,0,1,0,0)"><svg width="395.52" viewBox="4.32 -36.11 238.31 44.36" height="73.6180946527351" data-palette-color="#ffffff"><path d="M6.52-19.48L6.52-3.49 6.59-1.05Q6.59-0.42 6.25-0.07 5.91 0.27 5.43 0.27 4.96 0.27 4.64-0.05 4.32-0.37 4.32-0.74 4.32-1.12 4.38-1.45 4.44-1.78 4.49-2.2L4.49-2.2Q4.61-2.91 4.61-5.74L4.61-5.74 4.61-36.11 31.15-15.06 31.15-29.61Q31.15-31.27 31.05-31.98L31.05-31.98Q30.93-33.13 30.93-33.59L30.93-33.59Q30.93-34.81 31.98-34.81L31.98-34.81Q32.4-34.81 32.78-34.52 33.15-34.23 33.15-33.67L33.15-33.67 33.15-32.81 33.06-29.27 33.06 1.34 6.52-19.48ZM63.21-2.1L63.21-2.1Q64.45-2.1 64.45-1.12L64.45-1.12Q64.45-0.68 63.91-0.34 63.38 0 62.06 0L62.06 0 41.38 0 41.38-34.55Q51-34.55 60.62-34.55L60.62-34.55 62.62-34.62Q64.45-34.62 64.45-33.54L64.45-33.54Q64.45-33.13 64.15-32.78 63.84-32.42 63.45-32.42L63.45-32.42Q62.81-32.42 62.11-32.57L62.11-32.57Q61.06-32.79 59.23-32.79L59.23-32.79 53.83-32.79 53.83-25.34 58.27-25.34Q58.27-25.34 61.28-25.46L61.28-25.46Q61.81-25.46 62.19-25.21 62.57-24.95 62.57-24.49L62.57-24.49Q62.57-23.46 61.2-23.46L61.2-23.46 60.15-23.49Q59.35-23.56 58.81-23.56L58.81-23.56 53.83-23.56 53.83-1.78 59.23-1.78Q61.03-1.78 61.79-1.93L61.79-1.93Q62.69-2.1 63.21-2.1ZM69.45 0.27L69.45 0.27Q68.45 0.27 68.45-0.68L68.45-0.68Q68.45-1.42 69.53-2.34L69.53-2.34Q70.5-3.25 71.11-4.1L71.11-4.1Q71.11-4.1 77.88-13.96L77.88-13.96 67.96-34.55 80.9-34.55 86.76-22.34 91.87-29.66Q93.28-31.76 93.96-33.59L93.96-33.59Q94.5-34.81 95.43-34.81 96.36-34.81 96.36-33.76L96.36-33.76Q96.36-33.18 95.09-31.27L95.09-31.27 87.76-20.26 97.53 0 84.64 0 78.9-11.87 72.65-2.88Q70.8-0.29 70.04 0.12L70.04 0.12Q69.75 0.27 69.45 0.27ZM124.11-2.22L124.11-2.22Q125.41-2.22 125.41-1.12L125.41-1.12Q125.41-0.68 124.88-0.34 124.36 0 123.01 0L123.01 0 103.19 0 103.19-34.55 115.64-34.55 115.64-1.61 120.21-1.61Q121.75-1.61 122.86-1.92 123.97-2.22 124.11-2.22ZM146.3 0L146.3-1.61Q143.18 0.46 139.37 0.46L139.37 0.46Q134.32 0.46 131.26-2.08L131.26-2.08Q128.09-4.69 128.09-9.33L128.09-9.33Q128.09-13.43 131.24-16.06L131.24-16.06Q134.46-18.73 139.71-18.73L139.71-18.73Q143.23-18.73 146.3-17.38L146.3-17.38 146.3-24.1Q144.08-24.73 142.39-24.73 140.69-24.73 139.52-24.58 138.34-24.44 137.29-24.15L137.29-24.15Q135.02-23.51 133.85-22.44L133.85-22.44Q133.17-21.8 132.61-21.8 132.05-21.8 131.75-22.08 131.46-22.36 131.46-22.71 131.46-23.05 131.58-23.33 131.7-23.61 132.05-23.9L132.05-23.9Q132.78-24.54 134.49-25.17L134.49-25.17Q138.03-26.51 141.59-26.51L141.59-26.51Q152.43-26.51 155.43-21.34L155.43-21.34Q156.75-19.04 156.75-15.31L156.75-15.31 156.75 0 146.3 0ZM146.3-3.71L146.3-15.48Q143.23-16.97 140.18-16.97L140.18-16.97Q139.69-16.97 139.25-16.89L139.25-16.89 139.25-1.37Q139.37-1.34 139.52-1.34 139.66-1.34 139.81-1.34L139.81-1.34Q143.15-1.34 146.3-3.71L146.3-3.71ZM168.93 5.76L168.93 5.76Q170.42 5.3 171.01 4.57L171.01 4.57Q171.84 3.59 173.01 1.05L173.01 1.05 173.57-0.24 160.27-26.07 171.37-26.07 178.31-11.33 182.31-20.68Q183.41-23.24 183.75-24.58 184.09-25.93 184.42-26.22 184.75-26.51 185.23-26.51 185.71-26.51 185.97-26.22 186.24-25.93 186.24-25.63 186.24-25.34 186.18-25.01 186.12-24.68 185.94-24.13 185.75-23.58 185.41-22.75L185.41-22.75 175.28 0.73Q173.47 4.98 171.81 6.71L171.81 6.71Q170.4 8.25 168.95 8.25 167.49 8.25 167.49 7.24 167.49 6.23 168.93 5.76ZM213.14-5.93L213.14-5.93Q214.1-5.93 214.1-5.05L214.1-5.05Q214.1-4.39 213.24-3.49L213.24-3.49Q209.38 0.46 202.67 0.46L202.67 0.46Q196.64 0.46 192.51-3.17L192.51-3.17Q188.24-6.96 188.24-12.74L188.24-12.74Q188.24-18.65 192.1-22.46L192.1-22.46Q196.18-26.51 202.94-26.51L202.94-26.51Q208.36-26.51 212.05-23.22L212.05-23.22Q216.03-19.68 216.03-13.92L216.03-13.92Q216.03-13.09 215.98-12.16L215.98-12.16 199.86-12.16 199.86-1.68Q201.52-1.34 203.6-1.34L203.6-1.34Q207.99-1.34 211.09-4.25L211.09-4.25Q211.73-4.88 212-5.25L212-5.25Q212.56-5.93 213.14-5.93ZM206.63-13.94L206.63-24.27Q205.04-24.73 203.04-24.73 201.03-24.73 199.86-24.46L199.86-24.46 199.86-13.94 206.63-13.94ZM222.22 0L222.22-26.07 232.72-26.07 232.72-18.41Q234.41-22.58 236.35-24.55 238.29-26.51 240.24-26.51L240.24-26.51Q241.34-26.51 241.99-25.94 242.63-25.37 242.63-24.66 242.63-23.95 242.44-23.54 242.24-23.12 241.93-22.83L241.93-22.83Q241.27-22.22 240.68-22.22L240.68-22.22Q239.75-22.22 239.31-22.41L239.31-22.41Q238.56-22.75 237.97-22.75 237.38-22.75 236.48-21.81 235.58-20.87 234.75-19.21L234.75-19.21Q232.72-15.16 232.72-10.42L232.72-10.42 232.72 0 222.22 0Z" opacity="1" transform="matrix(1,0,0,1,0,0)" fill="#ffffff" class="wordmark-text-0" data-fill-palette-color="primary" id="text-0"></path></svg></g></svg></g></svg></g></svg></g></svg></g><defs></defs></svg><rect width="395.52" height="73.6180946527351" fill="none" stroke="none" visibility="hidden"></rect></g></svg></g></svg>