<svg xmlns="http://www.w3.org/2000/svg" version="1.1" xmlns:xlink="http://www.w3.org/1999/xlink" xmlns:svgjs="http://svgjs.dev/svgjs" width="2000" height="2276" viewBox="0 0 2000 2276"><g transform="matrix(1,0,0,1,-0.565150319946838,0.9214574898785486)"><svg viewBox="0 0 217 247" data-background-color="#fffff5" preserveAspectRatio="xMidYMid meet" height="2276" width="2000" xmlns="http://www.w3.org/2000/svg" xmlns:xlink="http://www.w3.org/1999/xlink"><g id="tight-bounds" transform="matrix(1,0,0,1,0.06131880971423698,-0.09999999999999432)"><svg viewBox="0 0 216.8773623805715 247.2" height="247.2" width="216.8773623805715"><g><svg viewBox="0 0 395.52 450.81949967849084" height="247.2" width="216.8773623805715"><g transform="matrix(1,0,0,1,0,273.5214154994369)"><svg viewBox="0 0 395.52 177.29808417905397" height="177.29808417905397" width="395.52"><g id="textblocktransform"><svg viewBox="0 0 395.52 177.29808417905397" height="177.29808417905397" width="395.52" id="textblock"><g><svg viewBox="0 0 395.52 121.56808726139461" height="121.56808726139461" width="395.52"><g transform="matrix(1,0,0,1,0,0)"><svg width="395.52" viewBox="1.75 -38.6 128.34 39.45" height="121.56808726139461" data-palette-color="#091627"><path d="M27.35 0L21.7 0 14.4-10.75 7.4 0 1.75 0 11.5-14.45 2.25-27.65 7.9-27.65 14.6-17.75 21.35-27.65 26.9-27.65 17.4-14.05 27.35 0ZM50.45 0.85Q44.35 0.85 40.2-1.6 36.05-4.05 33.97-8.5 31.9-12.95 31.9-18.9L31.9-18.9Q31.9-24.5 33.95-28.95 36-33.4 40.17-36 44.35-38.6 50.45-38.6L50.45-38.6Q53.1-38.6 55.17-38.18 57.25-37.75 59.65-36.75L59.65-36.75 59.65-32.3Q55.4-34.35 50.55-34.35L50.55-34.35Q46.35-34.35 43.25-32.38 40.15-30.4 38.5-26.88 36.85-23.35 36.9-18.9L36.9-18.9Q36.9-14.3 38.5-10.8 40.1-7.3 43.15-5.35 46.2-3.4 50.45-3.4L50.45-3.4Q53.1-3.4 55.67-4.15 58.25-4.9 61.1-6.3L61.1-6.3 62.65-2.2Q59.75-0.7 56.55 0.08 53.35 0.85 50.45 0.85L50.45 0.85ZM92.7-33.55L74.6-33.55 74.6-20.55 90.2-20.55 90.2-16.2 74.6-16.2 74.6 0 69.75 0 69.75-37.9 92.7-37.9 92.7-33.55ZM130.09 0L124.39 0 113.64-16 102.89 0 97.19 0 110.69-19.5 98.09-37.9 103.74-37.9 113.69-23.15 123.59-37.9 129.24-37.9 116.64-19.5 130.09 0Z" opacity="1" transform="matrix(1,0,0,1,0,0)" fill="#091627" class="wordmark-text-0" data-fill-palette-color="primary" id="text-0"></path></svg></g></svg></g><g transform="matrix(1,0,0,1,75.54431999999998,150.2673950297156)"><svg viewBox="0 0 244.43136 27.030689149338375" height="27.030689149338375" width="244.43136"><g transform="matrix(1,0,0,1,0,0)"><svg width="244.43136" viewBox="4.5 -35.6 423.15 46.8" height="27.030689149338375" data-palette-color="#091627"><path d="M23 0L4.5 0 4.5-32.8 8.65-32.8 8.65-3.55 23-3.55 23 0ZM32.5 0L28.4 0 28.4-24.3 32.5-24.3 32.5 0ZM30.5-29.3L30.5-29.3Q29.3-29.3 28.47-30.05 27.65-30.8 27.65-31.95L27.65-31.95Q27.65-33.15 28.47-33.88 29.3-34.6 30.5-34.6L30.5-34.6Q31.7-34.6 32.52-33.88 33.35-33.15 33.35-31.95L33.35-31.95Q33.35-30.8 32.52-30.05 31.7-29.3 30.5-29.3ZM60.25 10.25L56.09 10.25 56.09 1.6 56.3-2.8Q54.84-1.35 52.97-0.38 51.09 0.6 48.99 0.6L48.99 0.6Q44.39 0.6 41.67-2.7 38.95-6 38.95-12.1L38.95-12.1Q38.95-15.05 39.82-17.43 40.7-19.8 42.14-21.45 43.59-23.1 45.49-24 47.39-24.9 49.49-24.9L49.49-24.9Q51.59-24.9 53.2-24.18 54.8-23.45 56.45-22L56.45-22 56.55-22 56.95-24.3 60.25-24.3 60.25 10.25ZM49.89-2.85L49.89-2.85Q51.59-2.85 53.09-3.68 54.59-4.5 56.09-6.2L56.09-6.2 56.09-18.9Q54.55-20.3 53.12-20.88 51.7-21.45 50.2-21.45L50.2-21.45Q48.74-21.45 47.47-20.78 46.2-20.1 45.24-18.88 44.3-17.65 43.74-15.95 43.2-14.25 43.2-12.15L43.2-12.15Q43.2-7.75 44.95-5.3 46.7-2.85 49.89-2.85ZM75.54 0.6L75.54 0.6Q71.64 0.6 69.87-1.8 68.09-4.2 68.09-8.9L68.09-8.9 68.09-24.3 72.24-24.3 72.24-9.45Q72.24-6 73.32-4.48 74.39-2.95 76.79-2.95L76.79-2.95Q78.69-2.95 80.14-3.93 81.59-4.9 83.34-7.05L83.34-7.05 83.34-24.3 87.44-24.3 87.44 0 84.04 0 83.69-3.8 83.54-3.8Q81.84-1.8 79.97-0.6 78.09 0.6 75.54 0.6ZM99.74 0L95.64 0 95.64-24.3 99.74-24.3 99.74 0ZM97.74-29.3L97.74-29.3Q96.54-29.3 95.72-30.05 94.89-30.8 94.89-31.95L94.89-31.95Q94.89-33.15 95.72-33.88 96.54-34.6 97.74-34.6L97.74-34.6Q98.94-34.6 99.77-33.88 100.59-33.15 100.59-31.95L100.59-31.95Q100.59-30.8 99.77-30.05 98.94-29.3 97.74-29.3ZM116.24 0.6L116.24 0.6Q111.64 0.6 108.91-2.7 106.19-6 106.19-12.1L106.19-12.1Q106.19-15.05 107.06-17.43 107.94-19.8 109.39-21.45 110.84-23.1 112.74-24 114.64-24.9 116.74-24.9L116.74-24.9Q118.84-24.9 120.39-24.15 121.94-23.4 123.54-22.1L123.54-22.1 123.34-26.25 123.34-35.6 127.49-35.6 127.49 0 124.09 0 123.74-2.85 123.59-2.85Q122.14-1.45 120.26-0.43 118.39 0.6 116.24 0.6ZM117.14-2.85L117.14-2.85Q118.84-2.85 120.34-3.68 121.84-4.5 123.34-6.2L123.34-6.2 123.34-18.9Q121.79-20.3 120.36-20.88 118.94-21.45 117.44-21.45L117.44-21.45Q115.99-21.45 114.71-20.78 113.44-20.1 112.49-18.88 111.54-17.65 110.99-15.95 110.44-14.25 110.44-12.15L110.44-12.15Q110.44-7.75 112.19-5.3 113.94-2.85 117.14-2.85ZM152.03 0.6L152.03 0.6Q149.43 0.6 147.08-0.35 144.73-1.3 142.98-2.75L142.98-2.75 145.03-5.5Q146.63-4.2 148.31-3.4 149.98-2.6 152.18-2.6L152.18-2.6Q154.58-2.6 155.78-3.7 156.98-4.8 156.98-6.4L156.98-6.4Q156.98-7.35 156.48-8.05 155.98-8.75 155.21-9.28 154.43-9.8 153.43-10.2 152.43-10.6 151.43-11L151.43-11Q150.13-11.45 148.83-12.03 147.53-12.6 146.51-13.43 145.48-14.25 144.83-15.35 144.18-16.45 144.18-18L144.18-18Q144.18-19.45 144.76-20.73 145.33-22 146.41-22.93 147.48-23.85 149.03-24.38 150.58-24.9 152.53-24.9L152.53-24.9Q154.83-24.9 156.76-24.1 158.68-23.3 160.08-22.15L160.08-22.15 158.13-19.55Q156.88-20.5 155.53-21.1 154.18-21.7 152.58-21.7L152.58-21.7Q150.28-21.7 149.21-20.65 148.13-19.6 148.13-18.2L148.13-18.2Q148.13-17.35 148.58-16.73 149.03-16.1 149.78-15.63 150.53-15.15 151.51-14.78 152.48-14.4 153.53-14L153.53-14Q154.83-13.5 156.16-12.95 157.48-12.4 158.53-11.58 159.58-10.75 160.26-9.55 160.93-8.35 160.93-6.65L160.93-6.65Q160.93-5.15 160.36-3.85 159.78-2.55 158.66-1.55 157.53-0.55 155.86 0.03 154.18 0.6 152.03 0.6ZM173.28 0.6L173.28 0.6Q171.33 0.6 170.01 0 168.68-0.6 167.86-1.65 167.03-2.7 166.68-4.2 166.33-5.7 166.33-7.5L166.33-7.5 166.33-20.95 162.73-20.95 162.73-24.05 166.53-24.3 167.03-31.1 170.48-31.1 170.48-24.3 177.03-24.3 177.03-20.95 170.48-20.95 170.48-7.45Q170.48-5.2 171.31-3.98 172.13-2.75 174.23-2.75L174.23-2.75Q174.88-2.75 175.63-2.95 176.38-3.15 176.98-3.4L176.98-3.4 177.78-0.3Q176.78 0.05 175.61 0.33 174.43 0.6 173.28 0.6ZM187.08 0.6L187.08 0.6Q184.03 0.6 182-1.2 179.98-3 179.98-6.3L179.98-6.3Q179.98-10.3 183.53-12.43 187.08-14.55 194.88-15.4L194.88-15.4Q194.88-16.55 194.65-17.65 194.43-18.75 193.88-19.6 193.33-20.45 192.35-20.98 191.38-21.5 189.88-21.5L189.88-21.5Q187.78-21.5 185.93-20.7 184.08-19.9 182.63-18.9L182.63-18.9 181.03-21.75Q182.73-22.85 185.18-23.88 187.63-24.9 190.58-24.9L190.58-24.9Q195.03-24.9 197.03-22.18 199.03-19.45 199.03-14.9L199.03-14.9 199.03 0 195.63 0 195.28-2.9 195.13-2.9Q193.38-1.45 191.38-0.43 189.38 0.6 187.08 0.6ZM188.28-2.7L188.28-2.7Q190.03-2.7 191.58-3.53 193.13-4.35 194.88-5.95L194.88-5.95 194.88-12.7Q191.83-12.3 189.75-11.75 187.68-11.2 186.4-10.45 185.13-9.7 184.55-8.72 183.98-7.75 183.98-6.6L183.98-6.6Q183.98-4.5 185.23-3.6 186.48-2.7 188.28-2.7ZM210.73 0L206.68 0 206.68-35.6 210.73-35.6 210.73-11.5 210.88-11.5 221.23-24.3 225.78-24.3 217.63-14.55 226.88 0 222.38 0 215.28-11.7 210.73-6.4 210.73 0ZM235.52 0L231.42 0 231.42-24.3 235.52-24.3 235.52 0ZM233.52-29.3L233.52-29.3Q232.32-29.3 231.5-30.05 230.67-30.8 230.67-31.95L230.67-31.95Q230.67-33.15 231.5-33.88 232.32-34.6 233.52-34.6L233.52-34.6Q234.72-34.6 235.55-33.88 236.37-33.15 236.37-31.95L236.37-31.95Q236.37-30.8 235.55-30.05 234.72-29.3 233.52-29.3ZM247.82 0L243.72 0 243.72-24.3 247.12-24.3 247.47-20.8 247.62-20.8Q249.37-22.55 251.3-23.73 253.22-24.9 255.77-24.9L255.77-24.9Q259.62-24.9 261.4-22.5 263.17-20.1 263.17-15.4L263.17-15.4 263.17 0 259.07 0 259.07-14.85Q259.07-18.3 257.97-19.83 256.87-21.35 254.47-21.35L254.47-21.35Q252.57-21.35 251.12-20.4 249.67-19.45 247.82-17.6L247.82-17.6 247.82 0ZM279.27 11.2L279.27 11.2Q277.02 11.2 275.17 10.78 273.32 10.35 271.99 9.5 270.67 8.65 269.94 7.45 269.22 6.25 269.22 4.65L269.22 4.65Q269.22 3.1 270.17 1.7 271.12 0.3 272.77-0.85L272.77-0.85 272.77-1.05Q271.87-1.6 271.24-2.58 270.62-3.55 270.62-5L270.62-5Q270.62-6.55 271.47-7.7 272.32-8.85 273.27-9.5L273.27-9.5 273.27-9.7Q272.07-10.7 271.09-12.38 270.12-14.05 270.12-16.25L270.12-16.25Q270.12-18.25 270.84-19.85 271.57-21.45 272.82-22.58 274.07-23.7 275.74-24.3 277.42-24.9 279.27-24.9L279.27-24.9Q280.27-24.9 281.14-24.73 282.02-24.55 282.72-24.3L282.72-24.3 291.17-24.3 291.17-21.15 286.17-21.15Q287.02-20.3 287.59-19 288.17-17.7 288.17-16.15L288.17-16.15Q288.17-14.2 287.47-12.63 286.77-11.05 285.57-9.98 284.37-8.9 282.74-8.3 281.12-7.7 279.27-7.7L279.27-7.7Q278.37-7.7 277.42-7.93 276.47-8.15 275.62-8.55L275.62-8.55Q274.97-8 274.52-7.33 274.07-6.65 274.07-5.65L274.07-5.65Q274.07-4.5 274.97-3.75 275.87-3 278.37-3L278.37-3 283.07-3Q287.32-3 289.44-1.63 291.57-0.25 291.57 2.8L291.57 2.8Q291.57 4.5 290.72 6.03 289.87 7.55 288.27 8.7 286.67 9.85 284.39 10.53 282.12 11.2 279.27 11.2ZM279.27-10.45L279.27-10.45Q280.32-10.45 281.24-10.85 282.17-11.25 282.89-12 283.62-12.75 284.02-13.83 284.42-14.9 284.42-16.25L284.42-16.25Q284.42-18.95 282.92-20.43 281.42-21.9 279.27-21.9L279.27-21.9Q277.12-21.9 275.62-20.43 274.12-18.95 274.12-16.25L274.12-16.25Q274.12-14.9 274.52-13.83 274.92-12.75 275.64-12 276.37-11.25 277.29-10.85 278.22-10.45 279.27-10.45ZM279.87 8.35L279.87 8.35Q281.62 8.35 283.04 7.93 284.47 7.5 285.47 6.83 286.47 6.15 287.02 5.25 287.57 4.35 287.57 3.4L287.57 3.4Q287.57 1.7 286.32 1.05 285.07 0.4 282.67 0.4L282.67 0.4 278.47 0.4Q277.77 0.4 276.94 0.33 276.12 0.25 275.32 0L275.32 0Q274.02 0.95 273.42 2 272.82 3.05 272.82 4.1L272.82 4.1Q272.82 6.05 274.69 7.2 276.57 8.35 279.87 8.35ZM323.91 0.6L323.91 0.6Q321.96 0.6 320.64 0 319.31-0.6 318.49-1.65 317.66-2.7 317.31-4.2 316.96-5.7 316.96-7.5L316.96-7.5 316.96-20.95 313.36-20.95 313.36-24.05 317.16-24.3 317.66-31.1 321.11-31.1 321.11-24.3 327.66-24.3 327.66-20.95 321.11-20.95 321.11-7.45Q321.11-5.2 321.94-3.98 322.76-2.75 324.86-2.75L324.86-2.75Q325.51-2.75 326.26-2.95 327.01-3.15 327.61-3.4L327.61-3.4 328.41-0.3Q327.41 0.05 326.24 0.33 325.06 0.6 323.91 0.6ZM341.91 0.6L341.91 0.6Q339.66 0.6 337.63-0.25 335.61-1.1 334.06-2.73 332.51-4.35 331.58-6.73 330.66-9.1 330.66-12.1L330.66-12.1Q330.66-15.15 331.58-17.53 332.51-19.9 334.06-21.55 335.61-23.2 337.63-24.05 339.66-24.9 341.91-24.9L341.91-24.9Q344.16-24.9 346.18-24.05 348.21-23.2 349.76-21.55 351.31-19.9 352.23-17.53 353.16-15.15 353.16-12.1L353.16-12.1Q353.16-9.1 352.23-6.73 351.31-4.35 349.76-2.73 348.21-1.1 346.18-0.25 344.16 0.6 341.91 0.6ZM341.91-2.8L341.91-2.8Q343.46-2.8 344.76-3.48 346.06-4.15 346.98-5.38 347.91-6.6 348.41-8.3 348.91-10 348.91-12.1L348.91-12.1Q348.91-14.2 348.41-15.93 347.91-17.65 346.98-18.9 346.06-20.15 344.76-20.83 343.46-21.5 341.91-21.5L341.91-21.5Q340.36-21.5 339.06-20.83 337.76-20.15 336.83-18.9 335.91-17.65 335.41-15.93 334.91-14.2 334.91-12.1L334.91-12.1Q334.91-10 335.41-8.3 335.91-6.6 336.83-5.38 337.76-4.15 339.06-3.48 340.36-2.8 341.91-2.8ZM363.61 0L359.56 0 359.56-35.6 363.61-35.6 363.61-11.5 363.76-11.5 374.11-24.3 378.66-24.3 370.51-14.55 379.76 0 375.26 0 368.16-11.7 363.61-6.4 363.61 0ZM393.25 0.6L393.25 0.6Q390.8 0.6 388.68-0.28 386.55-1.15 384.98-2.78 383.4-4.4 382.5-6.75 381.6-9.1 381.6-12.1L381.6-12.1Q381.6-15.1 382.53-17.48 383.45-19.85 384.98-21.5 386.5-23.15 388.45-24.03 390.4-24.9 392.5-24.9L392.5-24.9Q394.8-24.9 396.63-24.1 398.45-23.3 399.68-21.8 400.9-20.3 401.55-18.2 402.2-16.1 402.2-13.5L402.2-13.5Q402.2-12.85 402.18-12.23 402.15-11.6 402.05-11.15L402.05-11.15 385.65-11.15Q385.9-7.25 388.08-4.98 390.25-2.7 393.75-2.7L393.75-2.7Q395.5-2.7 396.98-3.23 398.45-3.75 399.8-4.6L399.8-4.6 401.25-1.9Q399.65-0.9 397.7-0.15 395.75 0.6 393.25 0.6ZM385.6-14.1L385.6-14.1 398.6-14.1Q398.6-17.8 397.03-19.73 395.45-21.65 392.6-21.65L392.6-21.65Q391.3-21.65 390.13-21.15 388.95-20.65 388-19.68 387.05-18.7 386.43-17.3 385.8-15.9 385.6-14.1ZM412.3 0L408.2 0 408.2-24.3 411.6-24.3 411.95-20.8 412.1-20.8Q413.85-22.55 415.78-23.73 417.7-24.9 420.25-24.9L420.25-24.9Q424.1-24.9 425.88-22.5 427.65-20.1 427.65-15.4L427.65-15.4 427.65 0 423.55 0 423.55-14.85Q423.55-18.3 422.45-19.83 421.35-21.35 418.95-21.35L418.95-21.35Q417.05-21.35 415.6-20.4 414.15-19.45 412.3-17.6L412.3-17.6 412.3 0Z" opacity="1" transform="matrix(1,0,0,1,0,0)" fill="#091627" class="slogan-text-1" data-fill-palette-color="secondary" id="text-1"></path></svg></g></svg></g></svg></g></svg></g><g transform="matrix(1,0,0,1,89.69860001860255,0)"><svg viewBox="0 0 216.1227999627949 216.1227999627949" height="216.1227999627949" width="216.1227999627949"><g><svg></svg></g><g id="icon-0"><svg viewBox="0 0 216.1227999627949 216.1227999627949" height="216.1227999627949" width="216.1227999627949"><g><path d="M0 108.061c0-59.681 48.381-108.061 108.061-108.061 59.681 0 108.061 48.381 108.062 108.061 0 59.681-48.381 108.061-108.062 108.062-59.681 0-108.061-48.381-108.061-108.062zM108.061 205.16c53.626 0 97.098-43.472 97.099-97.099 0-53.626-43.472-97.098-97.099-97.098-53.626 0-97.098 43.472-97.098 97.098 0 53.626 43.472 97.098 97.098 97.099z" data-fill-palette-color="accent" fill="#dad603" stroke="transparent"></path></g><g transform="matrix(1,0,0,1,55.81331867260913,62.989719636839375)"><svg viewBox="0 0 104.49616261757663 90.14336068911614" height="90.14336068911614" width="104.49616261757663"><g><svg xmlns="http://www.w3.org/2000/svg" xmlns:xlink="http://www.w3.org/1999/xlink" version="1.1" x="0" y="0" viewBox="0.507 7.136 98.51299999999999 84.982" enable-background="new 0 0 100 100" xml:space="preserve" height="90.14336068911614" width="104.49616261757663" class="icon-cg-0" data-fill-palette-color="accent" id="cg-0"><g fill="#dad603" data-fill-palette-color="accent"><path d="M22.048 42.728l3.781 4.727 12.813 17.784c0.061 0.085 0.131 0.137 0.207 0.163L23.004 90.852 15.187 44.39 22.048 42.728 22.048 42.728zM0.507 55.422c0.008-0.154 0.071-0.324 0.201-0.494l11.41-14.799c0.103-0.132 0.334-0.325 0.667-0.24l8.336 1.908c0.241 0.09 0.235 0.11 0.304 0.181l-6.647 1.611c-0.24 0.061-0.294 0.081-0.435 0.189L0.507 55.422 0.507 55.422zM19.537 87.812l-3.778-4.885c-0.027-0.031-0.048-0.07-0.065-0.111l2.475-1.047L19.537 87.812 19.537 87.812zM21.713 88.462c-0.284 0.136-0.674 0.322-1.066 0.287l-1.74-7.685c-0.065-0.285-0.329-0.418-0.598-0.307l-2.327 0.985c0.62-0.937 1.926-2.029 2.329-2.479L13.357 50.91 1.485 55.936c-0.115 0.047-0.224 0.073-0.325 0.082L14.382 44.89 21.713 88.462 21.713 88.462zM37.129 61.631l8.919-7.785-6.737 10.819L37.129 61.631 37.129 61.631zM39.486 86.967l-15.721 5.151c6.968-5.792 15.873-13.211 23.971-19.97L39.486 86.967 39.486 86.967zM98.23 86.475l-57.626 0.293 8.921-16.026L98.23 86.475 98.23 86.475zM99.02 85.784L50.25 70.055c9.45-7.883 17.344-14.474 18.996-15.854L99.02 85.784 99.02 85.784zM49.038 69.889c-0.044 0.032-0.08 0.07-0.104 0.112C40.737 76.85 31.492 84.555 24.16 90.65l22.048-35.404L49.038 69.889 49.038 69.889zM60.498 60.363l-10.686 8.914-2.798-14.482L60.498 60.363 60.498 60.363zM55.514 57.355l-7.964-3.289 8.808 1.449L55.514 57.355 55.514 57.355zM79.921 8.222c-0.108 1.073-5.56 50.118-5.56 50.118l-4.756-5.04c-0.146-0.159-0.437-0.178-0.604-0.038l-7.755 6.475c-0.039-0.035-4.927-2.043-4.927-2.043l6.82-14.868C63.143 42.824 79.249 9.773 79.921 8.222L79.921 8.222zM32.224 7.136c0.106 0.058 0.21 0.149 0.307 0.277l28.445 38.034-4.242 9.247-10.755-1.771c-0.06-0.01-0.313 0.062-0.359 0.104l-2.346 2.057L32.224 7.136 32.224 7.136zM26.009 46.159l5.342-38.442c0.013-0.084 0.03-0.16 0.056-0.228l11.118 48.247-5.909 5.181L26.009 46.159 26.009 46.159z" fill="#dad603" data-fill-palette-color="accent"></path></g></svg></g></svg></g></svg></g></svg></g><g></g></svg></g><defs></defs></svg><rect width="216.8773623805715" height="247.2" fill="none" stroke="none" visibility="hidden"></rect></g></svg></g></svg>